<?xml version="1.0" encoding="UTF-8"?>
<svg version="1.1" xmlns="http://www.w3.org/2000/svg" width="512" height="512">
<path d="M0 0 C1.91210518 -0.01292336 1.91210518 -0.01292336 3.86283875 -0.02610779 C7.32809887 -0.04842204 10.79289837 -0.04570378 14.25820255 -0.03678632 C17.16769075 -0.03163738 20.07709532 -0.03900082 22.98657489 -0.04625839 C29.86108024 -0.06320236 36.73536336 -0.05974976 43.60986328 -0.04296875 C50.66220591 -0.02607419 57.71392831 -0.04185724 64.76620317 -0.07419163 C70.85582704 -0.1010372 76.94525964 -0.10812289 83.03493667 -0.09967655 C86.65659204 -0.09478795 90.2778753 -0.09673765 93.89948273 -0.11746407 C113.23576493 -0.21676338 129.14875529 -0.17071385 144.78027344 12.53344727 C145.59367188 13.13672852 146.40707031 13.74000977 147.24511719 14.36157227 C150.1665373 16.86436053 152.41526564 19.66709482 154.71777344 22.72094727 C158.96894834 28.24806263 163.32669823 33.66811171 167.78027344 39.03344727 C172.12072466 44.27279802 176.40521612 49.54602268 180.59277344 54.90844727 C181.47947442 56.0399716 182.36619272 57.17148237 183.25292969 58.30297852 C184.91212891 60.42119961 186.56448436 62.54423598 188.21386719 64.67016602 C194.97764071 73.21327962 199.91111393 77.84542775 210.78027344 79.53344727 C214.39607153 79.80081395 217.99467905 79.81912179 221.61927795 79.81192017 C222.67644073 79.81771257 223.73360351 79.82350497 224.82280153 79.8294729 C228.34649869 79.84640675 231.87006434 79.84934373 235.39379883 79.85229492 C237.92711709 79.86159765 240.4604323 79.87176683 242.9937439 79.88273621 C248.43822908 79.90436767 253.88267829 79.91999789 259.32719612 79.9301033 C267.19892259 79.94472427 275.0705842 79.97027055 282.94227248 79.99843459 C295.71532264 80.04384065 308.48838217 80.08048096 321.26147461 80.11157227 C333.66513716 80.14178319 346.06877684 80.17614511 358.47241211 80.21606445 C359.23770546 80.218526 360.00299881 80.22098755 360.79148287 80.22352369 C364.6309537 80.23589879 368.47042425 80.24835522 372.30989468 80.2608521 C404.13332334 80.36432723 435.95677692 80.4534143 467.78027344 80.53344727 C467.87187981 117.16307613 467.94233797 153.79268487 467.98453476 190.42240475 C467.98953743 194.74937679 467.99471473 199.07634861 468 203.40332031 C468.00157386 204.69542369 468.00157386 204.69542369 468.00317952 206.01363017 C468.02057267 219.95129838 468.05210434 233.88890043 468.08888462 247.82652942 C468.1263244 262.13366541 468.14851571 276.44076681 468.15662742 290.74794978 C468.1621089 299.57236424 468.17940572 308.39659167 468.21193931 317.22094854 C468.23312471 323.27665362 468.2394644 329.33226236 468.23427895 335.38800178 C468.2317234 338.87902706 468.23557014 342.36972608 468.25709534 345.86069298 C468.27705552 349.65375032 468.27218945 353.44601347 468.2612915 357.23908997 C468.27294287 358.33153277 468.28459424 359.42397557 468.29659867 360.5495227 C468.20800664 371.99148593 464.71217163 381.22458758 456.78027344 389.53344727 C445.48766966 400.3137212 433.31307633 401.1219283 418.44775391 401.04138184 C416.58993479 401.04599561 414.73211933 401.05235173 412.87431145 401.06029081 C407.78959268 401.07694167 402.70517539 401.06875703 397.62045574 401.05634594 C392.1288877 401.04728041 386.63737081 401.06127264 381.14581299 401.07226562 C370.39591307 401.09003935 359.64612496 401.08621593 348.89622068 401.07461506 C340.15848594 401.06557652 331.42078251 401.06435857 322.68304443 401.06871033 C321.43879822 401.06932326 320.194552 401.06993619 318.91260135 401.0705677 C316.38483126 401.07184662 313.85706118 401.07314347 311.32929111 401.07445806 C288.30927741 401.08553554 265.2893132 401.0740535 242.26931164 401.05308767 C221.26837565 401.03410616 200.2675367 401.03580471 179.26660156 401.05493164 C155.65529189 401.07636428 132.04402352 401.0847619 108.43270302 401.07248259 C105.91430283 401.07120841 103.39590264 401.06995092 100.87750244 401.06871033 C99.63844552 401.06809323 98.3993886 401.06747612 97.1227845 401.06684032 C88.39692689 401.0633886 79.67110374 401.06921194 70.94525146 401.07862854 C60.30936958 401.08985421 49.67360576 401.08679641 39.03773737 401.06550556 C33.61256825 401.05500292 28.18759589 401.05086009 22.76242828 401.06410217 C17.79315167 401.07604792 12.82425364 401.06942734 7.85501122 401.04819196 C6.06040897 401.04373518 4.26577452 401.04597133 2.47119308 401.05569512 C-11.51805641 401.12566191 -22.7148892 399.56169465 -33.21972656 389.53344727 C-42.77849856 379.520397 -44.82209662 368.95316642 -44.72766113 355.45288086 C-44.73227882 354.05703775 -44.73863753 352.66119953 -44.74657011 351.26537132 C-44.76316771 347.45759453 -44.75506116 343.65022209 -44.74262524 339.84244442 C-44.73353753 335.72511585 -44.74756283 331.60785455 -44.75854492 327.49053955 C-44.77629519 319.43573598 -44.77250577 311.38108182 -44.76089436 303.32627249 C-44.75184653 296.77770357 -44.75064187 290.22917641 -44.75498962 283.68060303 C-44.75560256 282.74719727 -44.75621549 281.81379151 -44.75684699 280.85210073 C-44.75812595 278.95567464 -44.7594228 277.05924855 -44.76073736 275.16282248 C-44.77213293 257.39623653 -44.75904552 239.62973324 -44.73753589 221.86316085 C-44.71966585 206.63147014 -44.72277024 191.3999014 -44.74121094 176.16821289 C-44.76263574 158.46351681 -44.77103439 140.75889311 -44.75876188 123.05418587 C-44.75748774 121.16488776 -44.75623025 119.27558964 -44.75498962 117.3862915 C-44.75437252 116.45681493 -44.75375542 115.52733836 -44.75311962 114.56969583 C-44.74967155 108.03194013 -44.75548334 101.4942305 -44.76490784 94.95648193 C-44.77614709 86.98490542 -44.77304735 79.01348638 -44.75178486 71.04192781 C-44.74130031 66.97771575 -44.73710805 62.91376587 -44.75038147 58.84955597 C-44.76236541 55.12371827 -44.75564517 51.39838396 -44.73447126 47.67259145 C-44.7279387 45.69791739 -44.74088746 43.72320795 -44.75470018 41.7485714 C-44.6496016 29.7333498 -41.596536 20.3083625 -33.21972656 11.53344727 C-23.50272981 2.25729725 -13.13442883 -0.07260583 0 0 Z " fill="#898990" transform="translate(44.2197265625,55.466552734375)"/>
<path d="M0 0 C33.18999047 -0.09162305 66.37994804 -0.16207296 99.57003619 -0.20426132 C103.49143384 -0.20926394 107.41283124 -0.21444125 111.33422852 -0.21972656 C112.11488417 -0.2207758 112.89553983 -0.22182505 113.69985171 -0.22290608 C126.32805199 -0.24029529 138.95617917 -0.27182476 151.58433614 -0.30861118 C164.54901697 -0.34606199 177.5136596 -0.36824459 190.4783923 -0.37635398 C198.47365974 -0.38183319 206.46872056 -0.39911752 214.46392437 -0.43166587 C220.60220098 -0.45537664 226.74032117 -0.45780941 232.87863731 -0.45243073 C235.39123174 -0.4535292 237.90383414 -0.46145946 240.41638184 -0.4768219 C243.85476116 -0.4968101 247.2922663 -0.49190618 250.73066711 -0.48101807 C251.71805431 -0.49266943 252.70544151 -0.5043208 253.72274953 -0.51632524 C264.8284558 -0.42168302 273.96672525 3.33118384 282 11 C288.62567353 17.94055702 293.12823641 25.92426222 293.03930664 35.68554688 C293.0307943 36.89833313 293.0307943 36.89833313 293.02210999 38.13562012 C293.01481369 38.75086548 293.0075174 39.36611084 293 40 C259.92052408 40.25191938 226.84129748 40.44567714 193.76108075 40.56171862 C189.85341424 40.57547597 185.94574963 40.58971356 182.03808594 40.60424805 C181.26015859 40.60713346 180.48223124 40.61001888 179.68073033 40.61299173 C167.09363155 40.66082319 154.50708684 40.74753415 141.92031647 40.84868076 C128.99974098 40.95164185 116.07945513 41.0126661 103.15848625 41.03497344 C95.18872623 41.05004827 87.22053234 41.09760918 79.2512546 41.18708114 C73.1344917 41.25224567 67.01891614 41.25898426 60.90185356 41.24418449 C58.39681684 41.24720742 55.89172011 41.26904646 53.38703728 41.31126022 C33.4678248 41.63047201 33.4678248 41.63047201 28.34116745 37.59530067 C25.73300835 35.02929909 23.85347692 32.15309535 22 29 C21.0214715 27.76885223 20.02550036 26.55112269 19.00390625 25.35546875 C18.19824219 24.31003906 17.39257812 23.26460937 16.5625 22.1875 C15.65127033 21.01023964 14.73980413 19.83316233 13.828125 18.65625 C13.14073242 17.76486328 13.14073242 17.76486328 12.43945312 16.85546875 C10.92538246 14.90381728 9.39479432 12.96614339 7.859375 11.03125 C7.34947021 10.38776611 6.83956543 9.74428223 6.31420898 9.08129883 C5.32817256 7.83781248 4.34074826 6.59542515 3.35180664 5.35424805 C0 1.11182025 0 1.11182025 0 0 Z " fill="#898990" transform="translate(219,80)"/>
</svg>
