<?xml version="1.0" encoding="UTF-8"?>
<svg version="1.1" xmlns="http://www.w3.org/2000/svg" width="512" height="512">
<path d="M0 0 C0.70140547 -0.00438225 1.40281094 -0.00876451 2.12547112 -0.01327956 C4.47582141 -0.02663391 6.82613423 -0.03283891 9.17651367 -0.03897095 C10.862047 -0.04687478 12.54757864 -0.05514391 14.23310852 -0.06375122 C19.77021678 -0.08994631 25.30733248 -0.10527981 30.84448242 -0.11953735 C32.75356043 -0.12489872 34.66263839 -0.13027623 36.57171631 -0.13566971 C44.51712388 -0.15729782 52.46252944 -0.17603174 60.40795898 -0.1872921 C71.77701374 -0.20351246 83.14572573 -0.23664455 94.5146513 -0.29369295 C102.51740102 -0.33247356 110.5200594 -0.35193459 118.52290058 -0.35721266 C123.29761909 -0.36085598 128.07197179 -0.37276783 132.84658813 -0.4053154 C137.34469822 -0.43553799 141.8422239 -0.44165767 146.34041405 -0.42993164 C147.98343276 -0.42971206 149.6264797 -0.43792023 151.26940346 -0.45558548 C168.91196794 -0.63482128 179.77313101 5.08459869 192.41323376 17.27788258 C193.91183132 18.76310808 195.40521534 20.25360754 196.89408875 21.74858093 C197.72665516 22.57661624 198.55922158 23.40465154 199.41701728 24.25777882 C201.69903253 26.52941407 203.97661014 28.8053862 206.25225222 31.08340251 C208.71834673 33.54990857 211.19017271 36.01066043 213.66119385 38.472229 C218.48995947 43.28445913 223.31323039 48.10215948 228.13429412 52.92210452 C232.05515194 56.84200876 235.97759182 60.76032295 239.90113258 64.67754173 C251.0446828 75.80350351 262.18405602 86.93362308 273.318064 98.06913409 C273.916931 98.66808101 274.51579801 99.26702793 275.1328125 99.88412476 C276.03221792 100.78365281 276.03221792 100.78365281 276.94979314 101.70135316 C286.67163993 111.42401321 296.40343168 121.13665091 306.13976576 130.84480128 C316.15621892 140.83248992 326.16515793 150.82765498 336.16637641 160.83059949 C341.77379447 166.43867998 347.38421753 172.04367421 353.0027523 177.64061928 C357.78450933 182.40411798 362.55920928 187.17455561 367.32507237 191.95395819 C369.75335878 194.38874945 372.1846684 196.82029112 374.62491798 199.24309731 C377.27628005 201.87896198 379.91490702 204.52697384 382.55082703 207.17826843 C383.31347844 207.93063272 384.07612986 208.68299701 384.86189193 209.45816022 C394.29848398 219.01615941 400.43781522 228.83059598 400.40698242 242.46640015 C400.40537109 243.2118811 400.40375977 243.95736206 400.40209961 244.72543335 C400.12803748 257.09987595 393.86260228 265.63044877 385.3921814 274.06785583 C384.72611677 274.73915714 384.06005214 275.41045845 383.37380373 276.10210222 C381.14790135 278.34296739 378.91494582 280.57666448 376.68188477 282.81039429 C375.08138413 284.41851886 373.48128639 286.0270445 371.88156128 287.63594055 C367.53914902 292.00028072 363.19019721 296.35804621 358.83935118 300.7139771 C356.11989099 303.43708268 353.4017332 306.16148149 350.68400955 308.88632011 C343.15016681 316.4396123 335.61486312 323.99143331 328.07274437 331.53646183 C327.59071223 332.01868154 327.10868009 332.50090125 326.61204091 332.99773368 C325.63496629 333.97517454 324.65789039 334.95261413 323.68081324 335.93005247 C323.19583481 336.4152137 322.71085638 336.90037494 322.21118164 337.40023804 C321.48281807 338.12887243 321.48281807 338.12887243 320.73974009 338.87222671 C312.87386845 346.74163922 305.0198054 354.62272341 297.17088144 362.50903613 C289.10055211 370.6174987 281.02064118 378.7162823 272.93159068 386.80607504 C268.39480519 391.34365296 263.86207394 395.88510835 259.33915329 400.43651009 C255.08366704 404.71819294 250.81633379 408.98770564 246.53972244 413.24828529 C244.97535894 414.81083568 243.41523103 416.37764031 241.85977173 417.94905472 C239.72917678 420.10015925 237.58357343 422.23512988 235.4336853 424.3669281 C234.82742668 424.9863867 234.22116805 425.60584529 233.59653795 426.24407536 C225.75849733 433.93315394 216.1163482 437.96716887 205.15698242 438.2203064 C182.10342117 437.22972369 167.47351022 416.75109343 152.3137207 401.61264038 C150.34185503 399.64653144 148.36929141 397.68112318 146.39680481 395.71563721 C140.51630317 389.85472736 134.64049317 383.98912523 128.76531726 378.12287745 C126.54763095 375.90871004 124.32963196 373.694856 122.11161748 371.48101733 C112.31745898 361.70529382 102.52464124 351.92822949 92.73584175 342.14713955 C90.35051545 339.76372265 87.96518363 337.38031126 85.57983398 334.99691772 C84.9870803 334.40464778 84.39432661 333.81237783 83.78361069 333.20216031 C74.16338238 323.5902475 64.53465438 313.98689626 54.90238608 304.3870505 C44.98878618 294.50654657 35.08275616 284.61850424 25.18409336 274.7230354 C19.6356925 269.17679519 14.08407452 263.63386289 8.52396011 258.09936333 C3.79466187 253.39180517 -0.92770999 248.67743359 -5.64129572 243.95414072 C-8.04314966 241.54775426 -10.44906604 239.14585152 -12.86182594 236.75037193 C-15.48276586 234.14715446 -18.09099476 231.53181243 -20.69650269 228.91316223 C-21.45292081 228.16771336 -22.20933893 227.42226448 -22.98867881 226.65422624 C-31.82222641 217.71311682 -37.19490278 208.60541428 -37.24217224 195.78715515 C-37.24740892 195.07910286 -37.2526456 194.37105056 -37.25804096 193.64154214 C-37.27295308 191.286635 -37.27374416 188.93194682 -37.27441406 186.57699585 C-37.28204156 184.88116595 -37.29047007 183.18533949 -37.29963684 181.48951721 C-37.32153256 176.89422449 -37.3303743 172.29899829 -37.33546329 167.7036593 C-37.33911319 164.82821575 -37.34535659 161.95278947 -37.35246468 159.07735252 C-37.37694365 149.03295506 -37.39000737 138.98860911 -37.39355469 128.94418335 C-37.39718705 119.60276057 -37.42706495 110.26166691 -37.46895927 100.92034465 C-37.5037307 92.88355306 -37.51910432 84.84687018 -37.51980072 76.81000394 C-37.52059131 72.01746295 -37.5292288 67.22525738 -37.55779839 62.43279457 C-37.58409625 57.92067011 -37.58611938 53.40915636 -37.57014275 48.89698982 C-37.56833744 47.24913951 -37.57493526 45.60125313 -37.59096146 43.95347977 C-37.71525434 30.33408135 -35.2941814 19.47749114 -25.57739258 9.3531189 C-17.9647378 2.93706404 -9.79507738 0.0434394 0 0 Z M46.03198242 84.15390015 C40.14319905 92.91490874 37.97555964 99.5046728 39.03198242 110.15390015 C41.4190542 117.91455952 46.26417779 124.40731867 53.31713867 128.4703064 C60.18991159 131.59627443 67.10432348 132.50143147 74.44604492 130.4937439 C82.50917228 127.29343046 88.74331977 121.96884796 92.34057617 114.0484314 C94.95228278 106.89206019 94.86504536 99.56788577 92.19995117 92.4234314 C87.7485213 83.77366298 81.05969394 79.16313732 72.03198242 76.15390015 C62.54806424 75.19130612 52.82331952 76.98526654 46.03198242 84.15390015 Z " fill="#89898F" transform="translate(111.968017578125,26.846099853515625)"/>
<path d="M0 0 C0.00238835 0.91845388 0.00477671 1.83690777 0.00723743 2.78319359 C0.06642511 25.15191565 0.14199941 47.5205303 0.23571491 69.88913536 C0.28064204 80.70651652 0.32006385 91.52386497 0.34643555 102.34130859 C0.36944055 111.77199545 0.40286661 121.20257858 0.44870156 130.63318312 C0.47259996 135.62461541 0.49135092 140.61594517 0.49761391 145.60743332 C0.50368004 150.31062982 0.52373509 155.0135641 0.55427551 159.71666336 C0.56303126 161.43788072 0.56678345 163.15913238 0.56500816 164.88037109 C0.55267729 182.36057201 3.7930937 191.98407416 16.21849573 204.47665834 C17.01033592 205.26267286 17.80217612 206.04868737 18.61801147 206.85852051 C19.47251691 207.7147348 20.32702235 208.57094909 21.2074219 209.45310926 C23.56181023 211.81020777 25.92056685 214.16276927 28.28133559 216.51346684 C30.83295161 219.05640337 33.37874137 221.60516145 35.92526245 224.15319824 C40.33195631 228.56093812 44.74228178 232.96501666 49.15513229 237.36659241 C55.53527711 243.73044669 61.90985756 250.09985103 68.28311642 256.47060055 C78.62477465 266.80788724 88.9708864 277.1407046 99.31982422 287.47070312 C109.36970034 297.50220641 119.4174627 307.53581914 129.46240234 317.57226562 C130.08212108 318.19145892 130.70183982 318.81065221 131.34033792 319.44860893 C134.44943537 322.55509621 137.55849145 325.6616249 140.66752696 328.76817417 C166.43860684 354.51853842 192.21692529 380.26164611 218 406 C217.05586258 407.12923747 216.10774209 408.25514555 215.15795898 409.37963867 C214.63040512 410.0069841 214.10285126 410.63432953 213.55931091 411.28068542 C211.60908189 413.43103091 209.57410082 414.86741363 207.0625 416.3125 C205.87333984 417.01826172 205.87333984 417.01826172 204.66015625 417.73828125 C195.1318028 422.25760308 183.88830886 422.7075998 173.9375 419.25 C166.14112835 416.14623119 160.74271069 411.03595942 154.90916443 405.18331909 C154.111273 404.39066434 153.31338157 403.59800959 152.49131161 402.781335 C149.82203073 400.12704213 147.15993352 397.46566182 144.49780273 394.80419922 C142.58426312 392.89828184 140.67034911 390.99274689 138.75601196 389.08763123 C133.55861601 383.91304253 128.36865467 378.73103973 123.18012118 373.54756689 C119.93792797 370.30863524 116.69410589 367.07133837 113.44993782 363.83438492 C104.460574 354.86458035 95.47278828 345.89320316 86.49174404 336.91506767 C85.91752838 336.34103958 85.34331272 335.76701149 84.75169659 335.17558862 C83.5877349 334.01199317 82.42377448 332.84839645 81.25981533 331.68479846 C80.39317818 330.81843553 80.39317818 330.81843553 79.5090332 329.93457031 C78.93056788 329.35628554 78.35210256 328.77800077 77.75610799 328.18219222 C68.38323273 318.81285841 58.99867384 309.45532312 49.60889637 300.10293137 C39.95911165 290.49125955 30.31874517 280.87022649 20.68784672 271.23962986 C15.28406464 265.83643162 9.8764204 260.43723268 4.45846367 255.04824448 C-0.15476334 250.45957105 -4.75922806 245.86232254 -9.35268158 241.2538517 C-11.69442568 238.90495527 -14.04116584 236.56172402 -16.3965168 234.22642708 C-18.95481771 231.68858216 -21.49714119 229.13571002 -24.03614807 226.57858276 C-24.77622606 225.85170474 -25.51630406 225.12482671 -26.27880865 224.37592208 C-34.15500708 216.37117262 -38.10954356 208.15854926 -38.14717102 196.94259644 C-38.15084771 196.23161273 -38.1545244 195.52062903 -38.1583125 194.78810036 C-38.16932635 192.40543847 -38.17318929 190.02282023 -38.17700195 187.64013672 C-38.18326841 185.93165448 -38.18991538 184.22317361 -38.19691467 182.51469421 C-38.21793833 176.90303493 -38.22831649 171.29137543 -38.23828125 165.6796875 C-38.24232965 163.74579987 -38.24644659 161.81191239 -38.25063133 159.87802505 C-38.26968044 150.79043048 -38.28391123 141.702844 -38.2922433 132.6152333 C-38.30201058 122.13604409 -38.32831802 111.6570664 -38.36874419 101.17795169 C-38.39893996 93.07162292 -38.41371552 84.96535466 -38.41702431 76.85897076 C-38.41937113 72.02066034 -38.42828337 67.18257595 -38.45348549 62.34432602 C-38.47683138 57.78882618 -38.48097333 53.23370015 -38.47072411 48.6781559 C-38.47023019 47.01173087 -38.47650778 45.34528703 -38.49028015 43.67891884 C-38.59453536 30.3101325 -36.64869443 19.91460333 -27 10 C-19.10848528 3.49943571 -10.27888412 0 0 0 Z " fill="#898990" transform="translate(38,64)"/>
</svg>
