<svg xmlns="http://www.w3.org/2000/svg" version="1.1" xmlns:xlink="http://www.w3.org/1999/xlink" xmlns:svgjs="http://svgjs.dev/svgjs" width="1000" height="1000"><style>
    #light-icon {
      display: inline;
    }
    #dark-icon {
      display: none;
    }

    @media (prefers-color-scheme: dark) {
      #light-icon {
        display: none;
      }
      #dark-icon {
        display: inline;
      }
    }
  </style><g id="light-icon"><svg xmlns="http://www.w3.org/2000/svg" version="1.1" xmlns:xlink="http://www.w3.org/1999/xlink" xmlns:svgjs="http://svgjs.dev/svgjs" width="1000" height="1000"><g><g transform="matrix(2.4038461538461537,0,0,2.4038461538461537,0,192.30769230769232)"><svg xmlns="http://www.w3.org/2000/svg" version="1.1" xmlns:xlink="http://www.w3.org/1999/xlink" xmlns:svgjs="http://svgjs.dev/svgjs" width="416" height="256"><svg width="416" height="256" viewBox="0 0 416 256" fill="none" xmlns="http://www.w3.org/2000/svg">
<path d="M102.731 4.06018C99.0203 6.07451 100.77 2.25787 75.5374 61.5746C70.0775 74.4028 62.4443 92.2667 58.5746 101.331C54.705 110.343 49.5632 122.429 47.1778 128.101C44.7924 133.773 40.8167 142.943 38.4313 148.509C28.0416 172.416 28.3597 171.515 28.4127 175.278C28.4657 180.844 31.1161 184.714 35.9929 186.357C37.2121 186.728 43.3611 186.94 54.2809 186.94C70.5016 186.94 70.8197 186.887 73.4701 185.668C74.9543 184.979 76.6506 183.707 77.2337 182.912C77.8168 182.063 81.4214 173.847 85.238 164.677C89.0547 155.506 94.2495 143.102 96.7939 137.112C99.2854 131.122 103.314 121.475 105.752 115.644C108.191 109.813 112.75 98.8398 115.93 91.2595C119.164 83.6793 122.185 76.3641 122.715 74.9328C123.245 73.5546 123.828 72.4414 124.04 72.4414C124.465 72.4414 130.826 87.1249 140.632 110.873C143.442 117.552 147.523 127.358 149.75 132.606C151.923 137.854 154.679 144.427 155.846 147.184C157.012 149.94 159.715 156.407 161.836 161.496C165.493 170.084 173.392 189.008 177.738 199.662L179.594 204.168L99.4974 204.433L19.3482 204.698L17.2278 205.864C16.0616 206.448 14.5774 207.561 13.9413 208.25C12.298 210.052 0 239.048 0 241.115C0 243.395 2.12035 247.9 4.02866 249.703C7.42122 252.883 -1.2192 252.671 124.093 252.671C203.978 252.671 239.44 252.512 240.501 252.088C243.84 250.869 247.339 246.045 247.869 241.963C248.24 239.207 247.922 238.359 236.154 210.794C232.019 201.041 226.612 188.372 224.227 182.7C221.842 177.028 218.979 170.349 217.866 167.857C216.753 165.366 213.466 157.626 210.551 150.629C207.635 143.632 204.031 135.045 202.493 131.546C199.154 123.807 190.566 103.558 187.121 95.2352C185.743 91.8956 183.622 86.9658 182.456 84.3684C181.29 81.718 178.374 74.9328 175.989 69.2609C173.604 63.589 168.356 51.1849 164.327 41.6964C160.298 32.2078 155.528 21.023 153.778 16.7823C149.75 7.34672 148.689 5.70345 145.668 4.1662C143.336 3 142.965 3 123.987 3C105.911 3.05301 104.586 3.10602 102.731 4.06018Z" fill="black"></path>
<path d="M223.135 0.226849C222.746 0.318981 221.631 0.49914 220.66 0.681058C217.993 1.0361 214.617 3.9003 213.127 6.98101L211.837 9.57995L211.802 24.4439L211.768 39.3078L212.997 41.7436C214.32 44.4226 217.533 46.9792 220.524 47.887C221.682 48.1915 243.465 48.649 283.937 49.1391L345.515 49.8849L337.558 59.23C333.138 64.4056 328.767 69.5334 327.833 70.6841C326.899 71.8349 323.314 76.0038 319.926 79.933C316.489 83.8617 313.049 88.0324 312.212 89.1359C308.62 93.9342 309.078 100.04 313.289 104.207C314.581 105.481 316.357 106.713 317.515 107.066C318.962 107.52 324.77 107.735 338.083 107.896C359.141 108.151 358.802 108.196 362.578 104.271C363.705 103.123 370.334 95.4563 377.308 87.3097C384.283 79.1146 392.779 69.2434 396.167 65.3142C408.101 51.4659 412.425 46.1923 413.514 44.2203C414.554 42.2962 414.609 41.7643 414.791 26.7569L414.979 11.2654L413.698 9.07109C412.134 6.29232 410.267 4.47825 407.812 3.3349C405.982 2.48964 401.432 2.38612 314.874 1.28944C264.818 0.634814 223.523 0.183128 223.135 0.226849Z" fill="black"></path>
<path d="M266.238 147.213C263.085 147.756 261.182 148.944 258.579 152.011C257.35 153.497 252.733 158.961 248.263 164.184C243.794 169.407 236.868 177.603 232.84 182.348C228.812 187.141 223.213 193.706 220.364 197.013C217.565 200.319 214.912 203.434 214.47 203.962C207.004 212.732 207.511 210.898 207.294 228.81C207.132 242.172 207.209 243.77 208.011 245.523C209.143 248.054 211.582 250.553 214.037 251.697C215.866 252.59 219.981 252.689 309.541 253.773C387.821 254.721 403.362 254.813 404.725 254.248C406.963 253.355 409.802 250.823 411.04 248.514C412.08 246.639 412.138 245.865 412.446 232.408C412.648 223.744 412.577 217.545 412.3 216.429C411.606 213.757 409.175 210.629 406.628 209.049L404.369 207.714L340.613 206.797C305.516 206.323 276.81 205.782 276.812 205.637C276.815 205.395 288.999 190.872 296.267 182.438C309.624 166.961 311.246 164.947 312.003 162.39C313.717 156.794 311.123 151.146 305.587 148.465C303.517 147.471 302.598 147.412 285.994 147.114C276.409 146.949 267.548 146.987 266.238 147.213Z" fill="black"></path>
</svg></svg></g></g></svg></g><g id="dark-icon"><svg xmlns="http://www.w3.org/2000/svg" version="1.1" xmlns:xlink="http://www.w3.org/1999/xlink" xmlns:svgjs="http://svgjs.dev/svgjs" width="1000" height="1000"><g><g transform="matrix(2.4038461538461537,0,0,2.4038461538461537,0,192.30769230769232)" style="filter: contrast(1) brightness(1)"><svg xmlns="http://www.w3.org/2000/svg" version="1.1" xmlns:xlink="http://www.w3.org/1999/xlink" xmlns:svgjs="http://svgjs.dev/svgjs" width="416" height="256"><svg width="416" height="256" viewBox="0 0 416 256" fill="none" xmlns="http://www.w3.org/2000/svg">
<path d="M102.731 4.06018C99.0203 6.07451 100.77 2.25787 75.5374 61.5746C70.0775 74.4028 62.4443 92.2667 58.5746 101.331C54.705 110.343 49.5632 122.429 47.1778 128.101C44.7924 133.773 40.8167 142.943 38.4313 148.509C28.0416 172.416 28.3597 171.515 28.4127 175.278C28.4657 180.844 31.1161 184.714 35.9929 186.357C37.2121 186.728 43.3611 186.94 54.2809 186.94C70.5016 186.94 70.8197 186.887 73.4701 185.668C74.9543 184.979 76.6506 183.707 77.2337 182.912C77.8168 182.063 81.4214 173.847 85.238 164.677C89.0547 155.506 94.2495 143.102 96.7939 137.112C99.2854 131.122 103.314 121.475 105.752 115.644C108.191 109.813 112.75 98.8398 115.93 91.2595C119.164 83.6793 122.185 76.3641 122.715 74.9328C123.245 73.5546 123.828 72.4414 124.04 72.4414C124.465 72.4414 130.826 87.1249 140.632 110.873C143.442 117.552 147.523 127.358 149.75 132.606C151.923 137.854 154.679 144.427 155.846 147.184C157.012 149.94 159.715 156.407 161.836 161.496C165.493 170.084 173.392 189.008 177.738 199.662L179.594 204.168L99.4974 204.433L19.3482 204.698L17.2278 205.864C16.0616 206.448 14.5774 207.561 13.9413 208.25C12.298 210.052 0 239.048 0 241.115C0 243.395 2.12035 247.9 4.02866 249.703C7.42122 252.883 -1.2192 252.671 124.093 252.671C203.978 252.671 239.44 252.512 240.501 252.088C243.84 250.869 247.339 246.045 247.869 241.963C248.24 239.207 247.922 238.359 236.154 210.794C232.019 201.041 226.612 188.372 224.227 182.7C221.842 177.028 218.979 170.349 217.866 167.857C216.753 165.366 213.466 157.626 210.551 150.629C207.635 143.632 204.031 135.045 202.493 131.546C199.154 123.807 190.566 103.558 187.121 95.2352C185.743 91.8956 183.622 86.9658 182.456 84.3684C181.29 81.718 178.374 74.9328 175.989 69.2609C173.604 63.589 168.356 51.1849 164.327 41.6964C160.298 32.2078 155.528 21.023 153.778 16.7823C149.75 7.34672 148.689 5.70345 145.668 4.1662C143.336 3 142.965 3 123.987 3C105.911 3.05301 104.586 3.10602 102.731 4.06018Z" fill="white"></path>
<path d="M223.135 0.226849C222.746 0.318981 221.631 0.49914 220.66 0.681058C217.993 1.0361 214.617 3.9003 213.127 6.98101L211.837 9.57995L211.802 24.4439L211.768 39.3078L212.997 41.7436C214.32 44.4226 217.533 46.9792 220.524 47.887C221.682 48.1915 243.465 48.649 283.937 49.1391L345.515 49.8849L337.558 59.23C333.138 64.4056 328.767 69.5334 327.833 70.6841C326.899 71.8349 323.314 76.0038 319.926 79.933C316.489 83.8617 313.049 88.0324 312.212 89.1359C308.62 93.9342 309.078 100.04 313.289 104.207C314.581 105.481 316.357 106.713 317.515 107.066C318.962 107.52 324.77 107.735 338.083 107.896C359.141 108.151 358.802 108.196 362.578 104.271C363.705 103.123 370.334 95.4563 377.308 87.3097C384.283 79.1146 392.779 69.2434 396.167 65.3142C408.101 51.4659 412.425 46.1923 413.514 44.2203C414.554 42.2962 414.609 41.7643 414.791 26.7569L414.979 11.2654L413.698 9.07109C412.134 6.29232 410.267 4.47825 407.812 3.3349C405.982 2.48964 401.432 2.38612 314.874 1.28944C264.818 0.634814 223.523 0.183128 223.135 0.226849Z" fill="white"></path>
<path d="M266.238 147.213C263.085 147.756 261.182 148.944 258.579 152.011C257.35 153.497 252.733 158.961 248.263 164.184C243.794 169.407 236.868 177.603 232.84 182.348C228.812 187.141 223.213 193.706 220.364 197.013C217.565 200.319 214.912 203.434 214.47 203.962C207.004 212.732 207.511 210.898 207.294 228.81C207.132 242.172 207.209 243.77 208.011 245.523C209.143 248.054 211.582 250.553 214.037 251.697C215.866 252.59 219.981 252.689 309.541 253.773C387.821 254.721 403.362 254.813 404.725 254.248C406.963 253.355 409.802 250.823 411.04 248.514C412.08 246.639 412.138 245.865 412.446 232.408C412.648 223.744 412.577 217.545 412.3 216.429C411.606 213.757 409.175 210.629 406.628 209.049L404.369 207.714L340.613 206.797C305.516 206.323 276.81 205.782 276.812 205.637C276.815 205.395 288.999 190.872 296.267 182.438C309.624 166.961 311.246 164.947 312.003 162.39C313.717 156.794 311.123 151.146 305.587 148.465C303.517 147.471 302.598 147.412 285.994 147.114C276.409 146.949 267.548 146.987 266.238 147.213Z" fill="white"></path>
</svg></svg></g></g></svg></g></svg>